<svg width="50" height="50" viewBox="0 0 50 50" fill="none" xmlns="http://www.w3.org/2000/svg"><g filter="url(#filter0_dii_7150_2248)"><path fill-rule="evenodd" clip-rule="evenodd" d="M32.618 14.2064L32.5384 15.2764L31.4649 15.1971L30.3914 15.1177L30.471 14.0476L32.618 14.2064ZM31.7272 23.9746C31.9098 22.6247 32.1111 20.4649 32.2664 18.6515C32.3457 17.7255 32.4137 16.8822 32.4618 16.2704C32.4859 15.9644 32.505 15.7162 32.5181 15.5444L32.5384 15.2764C32.5384 15.2764 32.5384 15.2764 31.4649 15.1971L30.3914 15.1177L30.3714 15.3816C30.3584 15.552 30.3394 15.7985 30.3155 16.1026C30.2676 16.711 30.2001 17.5492 30.1213 18.469C29.963 20.3179 29.7618 22.4657 29.5854 23.7481L29.5754 23.8207V23.8939C29.5754 24.334 29.1198 24.8139 28.5743 24.8139H28.4845C27.6713 24.8139 26.873 24.8242 26.0834 24.8344C24.5354 24.8544 23.019 24.8741 21.4797 24.8147L21.4589 24.8139H21.4381C20.9079 24.8139 20.4769 24.4204 20.4333 23.8959L20.4324 23.8853L20.4313 23.8747C20.2965 22.568 20.0938 20.3996 19.9244 18.5531C19.8397 17.6309 19.7636 16.7907 19.7086 16.181C19.6811 15.8761 19.6588 15.6289 19.6435 15.458L19.6198 15.1928L19.5243 14.1237L17.3799 14.314L17.4753 15.3828L18.5475 15.2876C17.4753 15.3828 17.4753 15.3827 17.4753 15.3828L17.4992 15.6492C17.5145 15.8204 17.5368 16.068 17.5643 16.3732C17.6194 16.9837 17.6957 17.825 17.7804 18.7486C17.9493 20.5893 18.1525 22.7632 18.2887 24.0847C18.4306 25.7209 19.7915 26.9484 21.4153 26.9598C23.0017 27.0204 24.611 26.9998 26.1875 26.9796C26.9632 26.9697 27.7309 26.9599 28.4839 26.9599H28.5739C30.1711 26.9599 31.6806 25.6692 31.7272 23.9746Z" fill="white"/><path fill-rule="evenodd" clip-rule="evenodd" d="M15.4756 10.3571H34.5241V12.6428H15.4756V10.3571Z" fill="white"/><path fill-rule="evenodd" clip-rule="evenodd" d="M20.6308 8.7746C20.8621 7.70113 21.8701 7 22.9281 7H27.1681C27.9755 7 29.2532 7.48934 29.4787 8.84242L29.6759 10.0257C29.6774 10.0344 29.6787 10.0432 29.68 10.0519C29.6832 10.0742 29.7081 10.151 29.8065 10.2322C29.9011 10.3104 30.0176 10.3526 30.1263 10.3526H31.2691V12.6383H30.1263C28.8229 12.6383 27.6125 11.6832 27.4194 10.3904L27.2375 9.2988C27.2339 9.29756 27.2301 9.29634 27.2261 9.29517C27.201 9.2878 27.1796 9.28571 27.1681 9.28571H22.9281C22.8945 9.28571 22.8697 9.29487 22.8545 9.30375C22.8542 9.305 22.8539 9.30624 22.8536 9.30748L22.5578 10.4907L21.449 10.2136L22.5578 10.4907C22.2442 11.7449 21.2281 12.6383 19.8714 12.6383H18.7285V10.3526H19.8714C20.0923 10.3526 20.2594 10.2599 20.3403 9.93638L20.6308 8.7746Z" fill="white"/></g><defs><filter id="filter0_dii_7150_2248" x="0.475586" y="0" width="49.0488" height="50" filterUnits="userSpaceOnUse" color-interpolation-filters="sRGB"><feFlood flood-opacity="0" result="BackgroundImageFix"/><feColorMatrix in="SourceAlpha" type="matrix" values="0 0 0 0 0 0 0 0 0 0 0 0 0 0 0 0 0 0 127 0" result="hardAlpha"/><feOffset dy="8"/><feGaussianBlur stdDeviation="7.5"/><feComposite in2="hardAlpha" operator="out"/><feColorMatrix type="matrix" values="0 0 0 0 0 0 0 0 0 0 0 0 0 0 0 0 0 0 0.1 0"/><feBlend mode="normal" in2="BackgroundImageFix" result="effect1_dropShadow_7150_2248"/><feBlend mode="normal" in="SourceGraphic" in2="effect1_dropShadow_7150_2248" result="shape"/><feColorMatrix in="SourceAlpha" type="matrix" values="0 0 0 0 0 0 0 0 0 0 0 0 0 0 0 0 0 0 127 0" result="hardAlpha"/><feOffset dy="-1"/><feGaussianBlur stdDeviation="0.5"/><feComposite in2="hardAlpha" operator="arithmetic" k2="-1" k3="1"/><feColorMatrix type="matrix" values="0 0 0 0 1 0 0 0 0 1 0 0 0 0 1 0 0 0 0.3 0"/><feBlend mode="normal" in2="shape" result="effect2_innerShadow_7150_2248"/><feColorMatrix in="SourceAlpha" type="matrix" values="0 0 0 0 0 0 0 0 0 0 0 0 0 0 0 0 0 0 127 0" result="hardAlpha"/><feOffset dy="1"/><feGaussianBlur stdDeviation="0.5"/><feComposite in2="hardAlpha" operator="arithmetic" k2="-1" k3="1"/><feColorMatrix type="matrix" values="0 0 0 0 0 0 0 0 0 0 0 0 0 0 0 0 0 0 0.1 0"/><feBlend mode="normal" in2="effect2_innerShadow_7150_2248" result="effect3_innerShadow_7150_2248"/></filter></defs></svg>