<svg width="18" height="18" viewBox="0 0 18 18" fill="none" xmlns="http://www.w3.org/2000/svg"><path d="M7.20765 11.929C3.88525 11.929 1 12.4535 1 14.4645C1 16.4754 3.88525 17 7.20765 17C10.5301 17 13.4153 16.4754 13.4153 14.4645C13.4153 12.4535 10.6175 11.929 7.20765 11.929Z" stroke="white" stroke-miterlimit="10" stroke-linecap="round" stroke-linejoin="round"/><path d="M7.2074 9.04372C9.3932 9.04372 11.2293 7.29508 11.2293 5.02186C11.2293 2.74863 9.48063 1 7.2074 1C4.93418 1 3.18555 2.74863 3.18555 5.02186C3.27298 7.20765 5.02161 9.04372 7.2074 9.04372Z" stroke="white" stroke-miterlimit="10" stroke-linecap="round" stroke-linejoin="round"/><path d="M15.4268 6.24585V9.74312" stroke="white" stroke-miterlimit="10" stroke-linecap="round" stroke-linejoin="round"/><path d="M17.1745 7.99463H13.5898" stroke="white" stroke-miterlimit="10" stroke-linecap="round" stroke-linejoin="round"/></svg>